<svg
   version="1.1"
   id="svg2"
   xml:space="preserve"
   width="187.28932"
   height="101.29714"
   viewBox="0 0 187.28932 101.29714"
   xmlns="http://www.w3.org/2000/svg"
   xmlns:svg="http://www.w3.org/2000/svg"><defs
     id="defs6" /><path
     d="m 51.996926,64.629984 h 2 v 26.66716 H 49.33026 v -26.66716 h 2.666666"
     style="fill:#f2cf04;fill-opacity:1;fill-rule:nonzero;stroke:none;stroke-width:0.133333"
     id="path130" /><path
     d="m 51.996926,37.830694 h 2 v 26.79929 H 49.33026 v -26.79929 h 2.666666"
     style="fill:#ed1c24;fill-opacity:1;fill-rule:nonzero;stroke:none;stroke-width:0.133333"
     id="path132" /><path
     d="m 28.854793,21.092054 c 0.0364,-0.29867 0.0572,-0.608 0.0572,-0.924 0,-0.17334 0.0016,-0.372 -0.0192,-0.6 2.664534,-0.0373 5.002,-1.95733 5.002,-4.16533 0,-1.124 -0.7328,-1.972 -1.1468,-2.47733 0.09373,-0.02 0.186934,-0.0427 0.280667,-0.0653 0.390667,0.33866 1.498533,1.54533 1.498533,3.06933 0,2.64933 -2.648,5.10799 -5.6724,5.16266 z M 26.16986,11.866729 c -0.04947,-0.296 -0.162,-0.562666 -0.3328,-0.792 0.0083,-0.270665 0.1192,-0.527998 0.554134,-0.315999 -0.234934,0.239999 -0.0536,0.666666 -0.0536,0.666666 0,0 0.4812,-0.224 0.382266,-0.541333 0.713467,0.172 0.2,1.129332 -0.55,0.982666 z m -0.619866,1.359995 c -0.0952,-0.396 -0.297867,-0.802663 -0.556134,-1.109329 -0.234933,-0.277333 -0.624,-0.606666 -1.148,-0.606666 -0.2396,0 -0.640533,0.112 -0.895866,0.218667 -0.09573,-0.173334 -0.281734,-0.592 -0.281734,-0.78 0,-0.194666 0.328134,-0.390665 0.9552,-0.390665 1.379734,0 2.204267,0.623998 2.204267,1.66933 0,0.366667 -0.145867,0.702663 -0.277733,0.998663 z m 3.544399,17.78531 c 0.159867,0 0.238534,0.0253 0.3312,0.06 0.397334,1.08134 1.928134,3.12 1.9916,3.20667 l 0.01467,0.0187 0.02293,-0.005 c 0.3744,-0.06 1.333867,-0.20534 2.136934,-0.20534 h 0.01773 c 0.08747,0 0.185867,0 0.249467,0.0613 0.0516,0.0533 0.0776,0.144 0.0776,0.27334 0,0.2 -0.08493,0.53999 -0.186,0.68666 -0.281734,-0.30666 -0.737467,-0.444 -1.466667,-0.444 -0.219733,0 -0.479067,0.0653 -0.619733,0.10133 l -0.05733,0.0133 -0.06613,0.0173 0.421867,0.42267 c 0.65,0.648 1.212,1.20933 1.212,1.58266 0,0.224 -0.2192,0.51734 -0.4208,0.64667 -0.0432,-0.684 -0.733867,-1.59867 -1.406267,-2.10933 l -0.05733,-0.044 -0.01147,0.24 c -0.0093,0.164 -0.02387,0.40933 -0.02387,0.67066 0,1.30134 -0.131866,1.49867 -0.5828,1.49867 -0.06933,0 -0.175066,-0.0187 -0.2412,-0.044 0.254134,-0.31333 0.354667,-0.72933 0.354667,-1.456 l -0.0036,-0.336 -0.0037,-0.27066 c 0,-0.29734 0.0308,-0.51734 0.0548,-0.696 l 0.01293,-0.10001 -0.0708,-0.009 c -0.210933,-0.0293 -0.6036,-0.084 -0.903067,-0.084 -0.6428,0 -1.078666,0.06 -1.394799,0.35734 -0.2084,-0.168 -0.4224,-0.45867 -0.4224,-0.64267 0,-0.272 0.1692,-0.292 0.390533,-0.292 0.112,0 0.216666,0.0147 0.361466,0.0333 0.276534,0.04 0.6932,0.10133 1.549467,0.10133 h 0.0532 l -0.01667,-0.052 c -0.2172,-0.62133 -0.8136,-1.52533 -1.769866,-2.68666 0.086,-0.31067 0.1704,-0.51467 0.471466,-0.51467 z m -8.256266,3.20133 -0.0172,0.052 h 0.05307 c 0.856266,0 1.273466,-0.0613 1.55,-0.10133 0.1448,-0.0187 0.2484,-0.0333 0.360933,-0.0333 0.221333,0 0.3912,0.02 0.3912,0.292 0,0.184 -0.215067,0.47467 -0.4224,0.64267 -0.316133,-0.29734 -0.7532,-0.35734 -1.3948,-0.35734 -0.3,0 -0.692667,0.0547 -0.9036,0.084 l -0.03333,0.004 -0.03707,0.005 0.012,0.10001 c 0.02507,0.17866 0.05573,0.39866 0.05573,0.696 l -0.0041,0.27066 -0.0032,0.336 c 0,0.72667 0.1,1.14267 0.354667,1.456 -0.06613,0.0253 -0.172267,0.044 -0.2416,0.044 -0.451067,0 -0.582267,-0.19733 -0.582267,-1.49867 0,-0.26133 -0.01467,-0.50666 -0.02347,-0.67066 l -0.01253,-0.24133 -0.0572,0.0453 c -0.671497,0.5107 -1.363097,1.42536 -1.40483,2.10936 -0.202533,-0.12933 -0.421333,-0.42267 -0.421333,-0.64667 0,-0.37333 0.560933,-0.93466 1.210933,-1.58266 l 0.374,-0.37467 0.04693,-0.048 -0.1224,-0.0307 c -0.140133,-0.036 -0.3996,-0.10133 -0.619866,-0.10133 -0.7292,0 -1.1844,0.13733 -1.466667,0.444 -0.10053,-0.14666 -0.18533,-0.48666 -0.18533,-0.68666 0,-0.12933 0.02547,-0.22 0.07707,-0.27333 0.064,-0.0613 0.1624,-0.0613 0.249467,-0.0613 h 0.01813 c 0.802667,0 1.762534,0.14533 2.137067,0.20533 l 0.0224,0.005 0.014,-0.0187 c 0.0652,-0.0867 1.595333,-2.12533 1.9932,-3.20666 0.0912,-0.0347 0.170933,-0.06 0.330267,-0.06 0.3016,0 0.385466,0.20399 0.471866,0.51466 -0.957333,1.16133 -1.552533,2.06533 -1.769733,2.68666 z m -4.1344,-18.28397 c 0,-1.524 1.107733,-2.73067 1.497867,-3.06933 0.09427,0.0227 0.188,0.0453 0.281333,0.0653 -0.414667,0.50533 -1.1464,1.35333 -1.1464,2.47733 0,2.22933 2.3828,4.16666 5.080667,4.16666 -0.01667,0.19066 -0.02653,0.392 -0.02653,0.59867 0,0.32933 0.01827,0.63599 0.05107,0.92399 -3.0516,-0.0187 -5.738,-2.49466 -5.738,-5.16266 z m 20.467733,4.69866 c 1.368133,2.16399 2.440533,2.12799 4.058267,2.12799 -1.339067,-1.02666 -2.2244,-2.33999 -2.6464,-3.01199 l -2.5004,-4 c -0.244267,-1.23599 -0.883334,-2.39199 -1.840134,-3.25066 0.321334,-0.122666 0.589067,-0.250666 0.75,-0.371999 -1.6328,0 -3.250533,-0.829332 -4.141733,-0.829332 -0.5724,0 -0.940533,0.341332 -0.940533,0.794665 0.03693,0.502666 0.555733,1.015996 1.514,1.015996 0.217733,0 0.4948,-0.028 0.8,-0.0787 0.519333,0.72267 0.937466,1.37733 0.937466,2.31067 0,1.75066 -2.0948,3.11732 -4.2088,3.11732 -0.119333,0 -0.2328,-0.005 -0.352666,-0.0147 -0.1916,-0.43333 -0.828533,-1.16399 -0.828533,-1.99199 0,-1.392 0.907733,-2.52933 0.907733,-3.907998 0,-0.857332 -0.417733,-1.386665 -0.578667,-1.606666 0.26,-0.241332 0.543733,-0.538665 0.61,-0.741331 -0.151066,0.06533 -0.3292,0.07467 -0.590666,0.07467 -1.0136,0 -1.8396,-0.263999 -2.645334,-0.263999 -0.4588,0 -0.5828,0.141332 -0.5828,0.277331 0,0.048 0.0073,0.100003 0.0208,0.124001 -0.171866,-0.068 -0.332266,-0.110666 -0.524,-0.146666 -0.236933,-0.04533 -0.4932,-0.068 -0.7656,-0.068 -0.979066,0 -1.327066,0.410666 -1.327066,0.762664 0,0.297333 0.2344,0.84 0.500533,1.253332 0.381733,-0.190666 0.8396,-0.321332 1.048933,-0.321332 0.519334,0 0.981334,0.494666 1.226134,1.081334 -0.349067,0.0413 -0.416267,0.0573 -0.769867,0.0573 -0.952133,0 -1.601067,-0.341336 -1.7344,-0.341336 -0.01347,0 -0.03853,0.0067 -0.03853,0.028 0,0.133336 0.2704,0.486666 0.8032,0.679996 0.700933,0.25734 1.752533,0.36534 1.928133,0.39334 0,0.0307 -0.178667,0.36266 -0.3772,0.42666 -0.04213,0.0133 -0.07493,0.0147 -0.123867,0.005 -0.733333,-0.14533 -0.937466,-0.20666 -1.8672,-0.56 -0.0292,-0.0107 -0.04533,0.007 -0.04533,0.036 0,0.368 0.952133,1.18 1.804667,1.49067 -0.712,0.90933 -1.602,1.83999 -2.021334,3.25866 -0.1188,0.009 -0.233866,0.0147 -0.353066,0.0147 -2.114667,0 -4.208934,-1.36666 -4.208934,-3.11733 0,-0.93333 0.419334,-1.588 0.938,-2.31066 0.3052,0.0507 0.581867,0.0787 0.799467,0.0787 0.9584,0 1.4776,-0.513335 1.5152,-1.016001 0,-0.453333 -0.368267,-0.794665 -0.942267,-0.794665 -0.890533,0 -2.5072,0.829332 -4.141066,0.829332 0.160933,0.121333 0.428667,0.249332 0.75,0.371999 -0.9568,0.858665 -1.595867,2.014665 -1.840133,3.250665 l -2.5,3.99999 c -0.421334,0.672 -1.309334,1.98533 -2.647467,3.012 1.617733,0 2.690667,0.036 4.06,-2.128 l 1.281733,-2.052 c 0.09533,0.26534 0.212,0.52534 0.348934,0.78 l -2.549467,4.07866 c -0.424533,0.676 -1.303067,1.98 -2.647867,3.012 1.618134,0 2.690534,0.0373 4.059334,-2.12667 L 16.748,20.806324 c 0.163467,0.17467 0.336933,0.34533 0.518667,0.50933 l -3.09734,4.95736 c -0.425466,0.67867 -1.3,1.97733 -2.646933,3.00933 1.617733,0 2.690667,0.04 4.059467,-2.12666 l 3.019199,-4.83333 c 0.198934,0.12534 0.402667,0.248 0.613067,0.36267 l -3.686,5.89732 c -0.424933,0.67867 -1.3,1.97467 -2.646266,3.00933 1.618133,0 2.690533,0.0373 4.059333,-2.12666 l 3.7948,-6.07464 c 0.224533,0.0867 0.452666,0.168 0.6844,0.24267 l -4.288533,6.86399 c -0.419334,0.668 -1.314134,1.98799 -2.645867,3.00933 1.617733,0 2.690133,0.036 4.0588,-2.12667 l 4.570933,-7.31599 c 0.04573,0.008 0.09267,0.016 0.137467,0.0253 0.124533,0.396 0.211466,0.764 0.211466,1.132 0,2.29866 -1.5084,4.32933 -3.3188,5.89599 0.1156,0.0507 0.3172,0.068 0.504134,0.068 0.373466,0 0.6152,-0.02 0.783866,-0.0493 -0.419733,0.95334 -1.320266,2.184 -1.774933,2.82133 -0.5932,-0.10666 -1.4552,-0.19067 -2.019867,-0.19067 -0.590533,0 -0.6572,0.34667 -0.6572,0.65467 0,0.53733 0.250534,0.964 0.5432,1.20133 0.1088,-0.27333 0.329734,-0.64133 1.421334,-0.64133 0.0208,0 0.05893,0.003 0.109333,0.007 -0.3192,0.356 -1.318133,1.16266 -1.318133,1.81333 0,0.43067 0.472933,1.076 1.095333,1.076 -0.0376,-0.13867 -0.0324,-0.26667 -0.0324,-0.36267 0,-0.528 0.466133,-1.144 0.860933,-1.57333 -0.01187,0.128 -0.0061,0.11467 -0.0061,0.264 0,1.24533 0.112933,1.81733 0.903067,1.81733 0.388,0 0.655733,-0.212 0.747333,-0.276 -0.513467,-0.47333 -0.539467,-0.844 -0.539467,-1.54266 9.34e-4,-0.18134 0.0015,-0.36 0.0041,-0.60534 0.002,-0.15866 -5.34e-4,-0.37066 -0.02653,-0.52399 0.283334,-0.0387 0.397867,-0.0387 0.615067,-0.0387 0,0 1.122933,-0.088 1.3932,0.496 0.3052,-0.28 0.747867,-0.67467 0.747867,-1.10934 0,-0.288 -0.1364,-0.612 -0.715067,-0.612 -0.218667,0 -0.9072,0.13334 -1.4844,0.13334 0.1548,-0.344 0.844267,-1.352 1.442267,-2.08267 0.0896,0.28267 0.230666,0.58934 0.544266,0.84 0.0432,-0.47066 0.3192,-1.95866 1.054667,-2.82799 0.08547,0.588 0.201067,1.19066 0.201067,2.46266 0,3.09333 -0.743734,5.37866 -2.323467,5.81466 0.205733,0.35733 0.640133,0.68 1.0912,0.68 0.577067,0 0.892667,-0.65334 1.212933,-1.26933 0.1672,0.45333 0.6292,1.56933 1.0912,1.56933 0.462534,0 0.9244,-1.116 1.0916,-1.56933 0.320934,0.61599 0.635467,1.26933 1.2136,1.26933 0.451067,0 0.885867,-0.32267 1.0916,-0.68 -1.5796,-0.436 -2.323866,-2.72133 -2.323866,-5.81466 0,-1.272 0.115066,-1.87466 0.200533,-2.46266 0.735867,0.86933 1.0124,2.35733 1.0552,2.82799 0.313467,-0.25066 0.4552,-0.55733 0.545333,-0.84 0.596267,0.73067 1.285867,1.73867 1.4416,2.08267 -0.5776,0 -1.266133,-0.13334 -1.484933,-0.13334 -0.578133,0 -0.714533,0.324 -0.714533,0.612 0,0.43467 0.442666,0.82934 0.747866,1.10934 0.269867,-0.584 1.393333,-0.496 1.393333,-0.496 0.2176,0 0.331734,0 0.615067,0.0387 -0.026,0.15333 -0.02813,0.36533 -0.02653,0.52399 0.0025,0.24534 0.0031,0.424 0.0036,0.60534 0,0.69866 -0.026,1.06933 -0.5396,1.54266 0.09213,0.064 0.359866,0.276 0.747466,0.276 0.790534,0 0.9036,-0.572 0.9036,-1.81733 0,-0.14933 0.0041,-0.136 -0.0057,-0.264 0.3932,0.42933 0.8604,1.04533 0.8604,1.57333 0,0.096 0.0052,0.224 -0.0328,0.36267 0.622933,0 1.095867,-0.64533 1.095867,-1.076 0,-0.65067 -0.998934,-1.45733 -1.319334,-1.81333 0.05267,-0.004 0.08907,-0.007 0.109867,-0.007 1.092267,0 1.312533,0.368 1.421867,0.64133 0.292266,-0.23733 0.5428,-0.664 0.5428,-1.20133 0,-0.308 -0.0656,-0.65467 -0.6568,-0.65467 -0.564534,0 -1.426534,0.084 -2.020267,0.19067 -0.4548,-0.63733 -1.3548,-1.868 -1.775067,-2.82133 0.1688,0.0293 0.410934,0.0493 0.783867,0.0493 0.187467,0 0.388533,-0.0173 0.504667,-0.068 -1.8104,-1.56666 -3.3192,-3.59733 -3.3192,-5.89599 0,-0.368 0.08747,-0.736 0.211467,-1.132 0.0448,-0.009 0.0916,-0.0173 0.138533,-0.0253 l 4.569733,7.31599 c 1.3688,2.16266 2.442267,2.12666 4.058933,2.12666 -1.3324,-1.02133 -2.226666,-2.34133 -2.6448,-3.00932 l -4.2896,-6.86399 c 0.232267,-0.0747 0.4604,-0.156 0.6848,-0.24267 l 3.7948,6.07466 c 1.3688,2.16399 2.440667,2.12666 4.059467,2.12666 -1.346933,-1.03466 -2.221333,-2.33066 -2.6464,-3.00933 l -3.686,-5.89732 c 0.21,-0.11467 0.414133,-0.23734 0.612,-0.36267 l 3.0204,4.83333 c 1.3692,2.16666 2.440533,2.12666 4.058267,2.12666 -1.345867,-1.032 -2.220267,-2.33066 -2.646267,-3.00933 l -3.096933,-4.95732 c 0.181733,-0.16401 0.355733,-0.33467 0.518266,-0.50934 l 2.195734,3.51333 c 1.3688,2.164 2.440666,2.12666 4.059466,2.12666 -1.345866,-1.03199 -2.2224,-2.33599 -2.648,-3.01199 l -2.549466,-4.07866 c 0.137066,-0.25467 0.254266,-0.51467 0.349466,-0.78 l 1.281867,2.052"
     style="fill:#231f20;fill-opacity:1;fill-rule:nonzero;stroke:none;stroke-width:0.133333"
     id="path134" /><path
     d="M 53.996926,11.297396 V 37.964024 H 49.33026 V 11.297396 h 4.666666"
     style="fill:#231f20;fill-opacity:1;fill-rule:nonzero;stroke:none;stroke-width:0.133333"
     id="path136" /><path
     d="m 168.76799,53.931604 v -4.90319 c 0,-0.6452 -0.108,-1.10773 -0.324,-1.38853 -0.21734,-0.28014 -0.548,-0.42027 -0.992,-0.42027 -0.38134,0 -0.69867,0.0953 -0.952,0.286 -0.25467,0.19 -0.45467,0.37493 -0.60267,0.5552 v 5.87079 h -1.28533 v -7.61612 h 1.17333 v 0.8568 h 0.032 c 0.032,-0.0636 0.1,-0.15627 0.20667,-0.2776 0.10533,-0.122 0.24266,-0.23814 0.412,-0.3496 0.16933,-0.11094 0.37066,-0.2088 0.60266,-0.2932 0.23334,-0.0849 0.49734,-0.12707 0.79334,-0.12707 0.33866,0 0.64533,0.0505 0.92133,0.15107 0.27467,0.10053 0.50667,0.26146 0.69733,0.48386 0.19067,0.22187 0.33867,0.5104 0.444,0.86454 0.10667,0.35413 0.15867,0.79066 0.15867,1.30893 v 4.99839 z m -7.108,-3.80839 c 0,-1.0156 -0.148,-1.75307 -0.444,-2.21293 -0.296,-0.4604 -0.708,-0.69067 -1.23734,-0.69067 -0.52933,0 -0.93866,0.23027 -1.22933,0.69067 -0.292,0.45986 -0.43733,1.19733 -0.43733,2.21293 0,1.01573 0.148,1.74533 0.44533,2.18959 0.296,0.44427 0.708,0.66667 1.23733,0.66667 0.528,0 0.93867,-0.2224 1.22934,-0.66667 0.29066,-0.44426 0.436,-1.17386 0.436,-2.18959 z m -4.68,0 c 0,-0.69787 0.0813,-1.30094 0.24533,-1.8088 0.164,-0.50787 0.38667,-0.92293 0.66667,-1.24533 0.28,-0.32294 0.60266,-0.56094 0.968,-0.714 0.36533,-0.15374 0.75333,-0.23027 1.16666,-0.23027 0.42267,0 0.81334,0.0765 1.17334,0.23027 0.36,0.15306 0.672,0.39106 0.936,0.714 0.26533,0.3224 0.47333,0.73746 0.62666,1.24533 0.15334,0.50786 0.23067,1.11093 0.23067,1.8088 0,0.70893 -0.08,1.31719 -0.23867,1.82506 -0.15866,0.50733 -0.37733,0.92293 -0.65733,1.24533 -0.28133,0.3224 -0.60667,0.55773 -0.976,0.70627 -0.37067,0.14786 -0.76267,0.22186 -1.17467,0.22186 -0.42266,0 -0.81466,-0.074 -1.17466,-0.22186 -0.35867,-0.14854 -0.67067,-0.38387 -0.936,-0.70627 -0.264,-0.3224 -0.47334,-0.73546 -0.62667,-1.2376 -0.15333,-0.50253 -0.22933,-1.11346 -0.22933,-1.83279 z m -2.25334,-5.6484 c -0.264,0 -0.476,-0.0849 -0.63466,-0.2536 -0.15867,-0.16933 -0.23867,-0.39173 -0.23867,-0.66666 0,-0.26467 0.08,-0.48133 0.23867,-0.65053 0.15866,-0.16934 0.37066,-0.25334 0.63466,-0.25334 0.25334,0 0.46,0.084 0.61867,0.25334 0.15867,0.1692 0.23867,0.38586 0.23867,0.65053 0,0.27493 -0.08,0.49733 -0.23867,0.66666 -0.15867,0.16867 -0.36533,0.2536 -0.61867,0.2536 z m 0.63467,9.45679 h -1.28533 v -7.61612 h 1.28533 z m -2.74533,-6.56932 h -1.66534 v 4.22092 c 0,0.53947 0.068,0.90667 0.20534,1.10253 0.13866,0.19587 0.37066,0.29374 0.69866,0.29374 0.19067,0 0.35467,-0.0265 0.492,-0.0796 0.13734,-0.0527 0.23734,-0.10054 0.30134,-0.1428 l 0.17466,1.03133 c -0.0533,0.0421 -0.18,0.10827 -0.38133,0.1984 -0.2,0.0901 -0.47067,0.13493 -0.80933,0.13493 -0.65467,0 -1.14667,-0.1824 -1.47467,-0.54746 -0.328,-0.36454 -0.492,-0.97027 -0.492,-1.81667 v -4.39532 h -0.92 v -0.85667 l 0.92,-0.19014 0.14267,-2.12613 h 1.14266 v 2.12613 h 1.824 z m -5.14,0.42866 c -0.032,-0.0317 -0.0827,-0.0792 -0.15067,-0.14266 -0.0693,-0.0636 -0.156,-0.12707 -0.26267,-0.19067 -0.10533,-0.0635 -0.232,-0.11867 -0.38,-0.16667 -0.148,-0.0473 -0.31733,-0.0713 -0.508,-0.0713 -0.27466,0 -0.532,0.0505 -0.76933,0.15107 -0.23867,0.10053 -0.444,0.26147 -0.61867,0.48387 -0.17466,0.22186 -0.312,0.51039 -0.41333,0.86453 -0.1,0.35413 -0.15067,0.78546 -0.15067,1.2932 0,0.5604 0.0453,1.03133 0.13467,1.41199 0.0907,0.3808 0.21467,0.68494 0.37333,0.91254 0.15867,0.22706 0.352,0.3912 0.57867,0.4916 0.228,0.10053 0.47867,0.15106 0.75467,0.15106 0.39066,0 0.68933,-0.0687 0.896,-0.20626 0.20666,-0.13747 0.352,-0.24894 0.436,-0.33334 l 0.524,0.88854 c -0.0533,0.0636 -0.12934,0.14013 -0.23067,0.22973 -0.1,0.0901 -0.22933,0.1776 -0.388,0.262 -0.15867,0.0849 -0.352,0.15626 -0.58,0.21453 -0.22667,0.0579 -0.48933,0.0871 -0.78533,0.0871 -0.42267,0 -0.81867,-0.0688 -1.18934,-0.20627 -0.37066,-0.13746 -0.69333,-0.3652 -0.968,-0.68226 -0.27466,-0.3172 -0.492,-0.72974 -0.65066,-1.2376 -0.15867,-0.50773 -0.23734,-1.13693 -0.23734,-1.888 0,-0.73013 0.0947,-1.34893 0.28534,-1.85679 0.19066,-0.5072 0.43866,-0.9172 0.74533,-1.2296 0.30667,-0.312 0.648,-0.53907 1.024,-0.68227 0.37467,-0.1428 0.75333,-0.21413 1.13333,-0.21413 0.28667,0 0.53734,0.0265 0.75467,0.0797 0.216,0.0525 0.40133,0.11866 0.55467,0.19786 0.15333,0.0797 0.28,0.16414 0.38133,0.25414 0.1,0.0896 0.18267,0.16666 0.24533,0.22973 z m -8.124,1.58653 -0.85734,-2.99853 c -0.116,-0.402 -0.216,-0.78533 -0.30133,-1.15053 -0.084,-0.36506 -0.132,-0.66866 -0.14267,-0.9124 h -0.032 c -0.0107,0.24374 -0.06,0.54214 -0.15066,0.89627 -0.0893,0.35466 -0.19334,0.7328 -0.30934,1.13493 l -0.904,3.03026 z m 2.808,4.55413 h -1.52267 l -0.984,-3.50679 h -3.316 l -1,3.50679 h -1.396 l 3.56933,-10.94839 h 1.08 z m -14.50134,-6.75932 c -0.456,0 -0.82,0.19 -1.096,0.57133 -0.27466,0.38067 -0.43333,0.93066 -0.476,1.65 h 2.77734 c 0.0107,-0.0532 0.0187,-0.12974 0.024,-0.23027 0.005,-0.10053 0.008,-0.2088 0.008,-0.32493 0,-0.5292 -0.10667,-0.93907 -0.31734,-1.23027 -0.212,-0.29066 -0.51866,-0.43586 -0.92,-0.43586 z m 2.41067,1.71346 c 0,0.3276 -0.0107,0.61093 -0.0307,0.84893 -0.0213,0.238 -0.0427,0.44694 -0.064,0.62667 h -3.888 c 0.0427,0.89893 0.236,1.5604 0.58,1.98333 0.344,0.4228 0.83867,0.6348 1.48267,0.6348 0.22267,0 0.424,-0.0265 0.604,-0.0796 0.18,-0.0527 0.336,-0.11627 0.468,-0.19014 0.132,-0.074 0.24267,-0.1484 0.33333,-0.22239 0.0893,-0.074 0.156,-0.13227 0.19734,-0.17454 l 0.476,0.90467 c -0.052,0.0527 -0.132,0.1292 -0.23734,0.22973 -0.10533,0.10053 -0.24933,0.20107 -0.428,0.3016 -0.18,0.10053 -0.40266,0.188 -0.66666,0.262 -0.26534,0.0739 -0.57734,0.11093 -0.936,0.11093 -0.476,0 -0.908,-0.0792 -1.29334,-0.23813 -0.38666,-0.1588 -0.71466,-0.40467 -0.984,-0.738 -0.26933,-0.3328 -0.47866,-0.75626 -0.62666,-1.2692 -0.148,-0.51306 -0.22267,-1.1292 -0.22267,-1.84839 0,-0.67667 0.0773,-1.26147 0.23067,-1.7532 0.15333,-0.4916 0.36266,-0.8964 0.62666,-1.21347 0.264,-0.31773 0.57067,-0.5532 0.92,-0.70626 0.34934,-0.15374 0.72534,-0.23027 1.12667,-0.23027 0.72933,0 1.30133,0.23027 1.71333,0.69013 0.41334,0.4604 0.61867,1.15054 0.61867,2.0708 z m -6.23467,-1.52346 h -1.66666 v 4.22092 c 0,0.53947 0.0693,0.90667 0.20666,1.10253 0.13734,0.19587 0.37067,0.29374 0.69734,0.29374 0.19066,0 0.35466,-0.0265 0.492,-0.0796 0.13733,-0.0527 0.23866,-0.10054 0.30133,-0.1428 l 0.17467,1.03133 c -0.052,0.0421 -0.18,0.10827 -0.38,0.1984 -0.20134,0.0901 -0.47067,0.13493 -0.80934,0.13493 -0.656,0 -1.148,-0.1824 -1.476,-0.54746 -0.328,-0.36454 -0.492,-0.97027 -0.492,-1.81667 v -4.39532 h -0.92 v -0.85667 l 0.92,-0.19014 0.14267,-2.12613 h 1.14267 v 2.12613 h 1.82533 z m -7.728,5.66466 c 0.18,0 0.33867,-0.0267 0.476,-0.0792 0.13734,-0.0531 0.25734,-0.11667 0.35734,-0.19067 0.1,-0.0739 0.18533,-0.15573 0.25466,-0.24573 0.068,-0.0901 0.12934,-0.16667 0.18134,-0.23027 v -1.68173 l -0.412,0.0161 c -0.61334,0.0208 -1.07867,0.12653 -1.396,0.3172 -0.31734,0.19 -0.476,0.4968 -0.476,0.92026 0,0.3912 0.0893,0.68493 0.26933,0.88027 0.18,0.19573 0.428,0.29373 0.74533,0.29373 z m -2.3,-1.03134 c 0,-0.44426 0.084,-0.81453 0.25334,-1.11093 0.16933,-0.29573 0.39733,-0.5364 0.68266,-0.72186 0.28534,-0.1848 0.62134,-0.3172 1.008,-0.39627 0.38534,-0.0797 0.796,-0.11933 1.22934,-0.11933 h 0.396 v -0.72974 c 0,-0.64519 -0.11334,-1.08946 -0.34,-1.33279 -0.228,-0.2432 -0.548,-0.36507 -0.96,-0.36507 -0.38134,0 -0.69867,0.0823 -0.952,0.24587 -0.25467,0.164 -0.456,0.30933 -0.604,0.4364 l -0.53867,-0.8568 c 0.084,-0.0843 0.19333,-0.1796 0.32533,-0.28534 0.132,-0.10573 0.29334,-0.20626 0.484,-0.3016 0.18934,-0.0953 0.40667,-0.17453 0.65067,-0.238 0.24267,-0.0636 0.51733,-0.0953 0.824,-0.0953 0.78267,0 1.376,0.21667 1.77733,0.65054 0.40267,0.43386 0.60267,1.13173 0.60267,2.09426 v 3.47506 c 0,0.328 0.0107,0.64787 0.032,0.95987 0.0213,0.312 0.0427,0.5208 0.064,0.62706 h -1.22267 l -0.0467,-0.8412 h -0.032 c -0.0427,0.0953 -0.10534,0.20374 -0.19067,0.32507 -0.084,0.12187 -0.19067,0.2328 -0.31733,0.33333 -0.12667,0.10054 -0.28,0.188 -0.46,0.262 -0.18,0.0739 -0.39067,0.11094 -0.63467,0.11094 -0.28533,0 -0.552,-0.0532 -0.80133,-0.15894 -0.248,-0.10573 -0.46534,-0.2536 -0.65067,-0.44426 -0.18533,-0.19014 -0.328,-0.41507 -0.428,-0.67387 -0.1,-0.25946 -0.15067,-0.54226 -0.15067,-0.84906 z m -6.7592,1.936 v -4.90319 c 0,-0.62387 -0.0901,-1.07334 -0.26973,-1.3484 -0.17973,-0.27493 -0.47093,-0.41253 -0.87293,-0.41253 -0.21147,0 -0.39907,0.0261 -0.56307,0.0792 -0.164,0.0532 -0.30933,0.1188 -0.4364,0.1984 -0.1272,0.0792 -0.23813,0.16666 -0.33333,0.26146 -0.0948,0.0953 -0.17454,0.18027 -0.23814,0.25427 v 5.87079 h -1.2848 v -7.61612 h 1.17387 v 0.8568 h 0.0319 c 0.0531,-0.0849 0.13227,-0.18814 0.238,-0.30947 0.10573,-0.12187 0.238,-0.238 0.3968,-0.34947 0.1584,-0.11093 0.34373,-0.20306 0.5552,-0.2776 0.21147,-0.074 0.4496,-0.11093 0.71413,-0.11093 0.8672,0 1.48067,0.33853 1.84067,1.0156 0.0739,-0.10573 0.1744,-0.2192 0.30093,-0.34107 0.1272,-0.12186 0.2756,-0.2328 0.44427,-0.33333 0.16933,-0.10053 0.36,-0.1824 0.57146,-0.24587 0.21147,-0.0636 0.44427,-0.0953 0.6984,-0.0953 1.54427,0 2.31614,0.89894 2.31614,2.69747 v 5.10932 h -1.28494 v -4.9032 c 0,-0.62386 -0.11146,-1.07333 -0.33333,-1.34839 -0.2224,-0.27494 -0.55,-0.41254 -0.98387,-0.41254 -0.35933,0 -0.65826,0.0871 -0.89626,0.26147 -0.238,0.17507 -0.42613,0.3412 -0.5636,0.5 0.0213,0.11613 0.0375,0.24067 0.0479,0.37293 0.0105,0.13227 0.0157,0.2724 0.0157,0.4204 v 5.10933 z m -6.60053,-9.45679 c -0.26453,0 -0.475996,-0.0849 -0.634926,-0.2536 -0.15827,-0.16933 -0.238,-0.39173 -0.238,-0.66666 0,-0.26467 0.0797,-0.48133 0.238,-0.65053 0.15893,-0.16934 0.370396,-0.25334 0.634926,-0.25334 0.2536,0 0.45987,0.084 0.6188,0.25334 0.15827,0.1692 0.238,0.38586 0.238,0.65053 0,0.27493 -0.0797,0.49733 -0.238,0.66666 -0.15893,0.16867 -0.3652,0.2536 -0.6188,0.2536 z m 0.6344,9.45679 h -1.284926 v -7.61612 h 1.284926 z m -3.633326,-1.77706 c 0,0.31719 0.0448,0.53906 0.13493,0.66613 0.09,0.12706 0.24573,0.19066 0.46813,0.19066 0.11614,0 0.21414,-0.0111 0.29334,-0.0319 0.0796,-0.0213 0.14,-0.0421 0.1828,-0.0635 l 0.11093,0.952 c -0.0636,0.0319 -0.17973,0.074 -0.34907,0.12667 -0.1692,0.0531 -0.3968,0.0796 -0.68226,0.0796 -0.43387,0 -0.7828,-0.13227 -1.04734,-0.3968 -0.26466,-0.26466 -0.39693,-0.73493 -0.39693,-1.412 v -9.55212 l 1.28547,-0.14266 z m -9.64693,-3.69746 c 0,-1.02547 0.12706,-1.8984 0.3808,-2.61774 0.2536,-0.71919 0.5896,-1.30359 1.00773,-1.75359 0.41773,-0.44947 0.89373,-0.77707 1.4276,-0.98334 0.5344,-0.20626 1.08187,-0.30933 1.64227,-0.30933 0.402,0 0.7484,0.0421 1.0396,0.12653 0.29053,0.0849 0.5396,0.1828 0.74573,0.29374 0.20627,0.11093 0.3724,0.2276 0.4996,0.34893 0.12707,0.12187 0.2276,0.21987 0.30147,0.29373 l -0.74587,0.9204 c -0.0525,-0.0532 -0.12707,-0.12706 -0.22187,-0.2224 -0.0952,-0.0953 -0.214,-0.18746 -0.3572,-0.2776 -0.1428,-0.0901 -0.31466,-0.16933 -0.5156,-0.23799 -0.20106,-0.0688 -0.43386,-0.10321 -0.698,-0.10321 -0.402,0 -0.788,0.0797 -1.15826,0.238 -0.3704,0.15894 -0.6928,0.4152 -0.96774,0.76987 -0.2756,0.35413 -0.4948,0.81146 -0.65893,1.3724 -0.16347,0.5604 -0.24573,1.24266 -0.24573,2.04679 0,0.83547 0.0687,1.54174 0.20626,2.11773 0.13747,0.57654 0.33334,1.04747 0.58694,1.41254 0.25413,0.36453 0.55826,0.6292 0.91253,0.79319 0.35413,0.16414 0.7484,0.24587 1.18227,0.24587 0.3068,0 0.57346,-0.0317 0.80106,-0.0953 0.2276,-0.0631 0.42547,-0.13693 0.5948,-0.22186 0.1692,-0.0849 0.30667,-0.17187 0.4124,-0.262 0.10574,-0.0896 0.19067,-0.16667 0.25427,-0.22974 l 0.52333,0.936 c -0.0739,0.074 -0.17706,0.17187 -0.30933,0.2932 -0.13227,0.12187 -0.30933,0.238 -0.5312,0.34947 -0.2224,0.11093 -0.48707,0.20893 -0.79373,0.29333 -0.3068,0.0848 -0.67147,0.12707 -1.0948,0.12707 -0.6344,0 -1.21094,-0.1032 -1.7292,-0.30947 -0.51827,-0.20626 -0.96254,-0.53426 -1.3328,-0.98386 -0.3704,-0.44947 -0.65574,-1.03374 -0.85681,-1.75307 -0.20106,-0.71933 -0.30159,-1.59213 -0.30159,-2.61826 z m -7.806272,4.52239 c 0.200534,0 0.3808,-0.0265 0.539067,-0.0796 0.158933,-0.0527 0.2964,-0.1188 0.412533,-0.19854 0.116667,-0.0791 0.214667,-0.16093 0.293734,-0.24573 0.07973,-0.0844 0.140133,-0.1584 0.182266,-0.222 v -4.69626 c -0.116133,-0.0745 -0.250933,-0.13747 -0.404133,-0.19067 -0.1536,-0.0531 -0.3468,-0.0792 -0.5792,-0.0792 -0.296267,0 -0.573867,0.05 -0.833333,0.15054 -0.2588,0.10053 -0.483734,0.2672 -0.673867,0.5 -0.190667,0.23226 -0.3412,0.53386 -0.452667,0.90426 -0.110933,0.37027 -0.166666,0.82493 -0.166666,1.36453 0,0.5292 0.04533,0.97027 0.135466,1.32493 0.0896,0.35427 0.214,0.6396 0.3724,0.8568 0.1588,0.21667 0.338534,0.37294 0.5396,0.46774 0.201067,0.0953 0.4124,0.1432 0.6348,0.1432 z m -3.015066,-2.74533 c 0,-0.77187 0.101066,-1.4172 0.3016,-1.93533 0.201066,-0.51827 0.4604,-0.93653 0.7776,-1.25373 0.3172,-0.31707 0.677066,-0.54214 1.0792,-0.6744 0.401466,-0.13174 0.8036,-0.198 1.205733,-0.198 0.2432,0 0.454667,0.0183 0.634267,0.0553 0.180266,0.0369 0.328133,0.0823 0.444266,0.1348 v -3.64947 l 1.285467,-0.14266 v 11.36092 h -1.174 v -0.80934 h -0.03173 c -0.03173,0.0635 -0.09013,0.1504 -0.1744,0.26134 -0.08493,0.11146 -0.201067,0.2224 -0.3496,0.33333 -0.147867,0.11107 -0.3328,0.20627 -0.5552,0.286 -0.221867,0.0792 -0.4812,0.1188 -0.7776,0.1188 -0.359334,0 -0.700534,-0.0715 -1.022934,-0.21413 -0.3228,-0.14267 -0.605733,-0.37027 -0.848933,-0.68227 -0.243733,-0.312 -0.4364,-0.714 -0.579067,-1.20627 -0.1428,-0.49159 -0.214666,-1.08639 -0.214666,-1.78493 z m -2.855734,3.69746 v -4.90319 c 0,-0.6452 -0.108266,-1.10773 -0.324933,-1.38853 -0.2172,-0.28014 -0.548,-0.42027 -0.992267,-0.42027 -0.380666,0 -0.697866,0.0953 -0.951466,0.286 -0.254267,0.19 -0.455334,0.37493 -0.6032,0.5552 v 5.87079 h -1.285467 v -7.61612 h 1.174533 v 0.8568 h 0.03173 c 0.03187,-0.0636 0.100533,-0.15627 0.206266,-0.2776 0.105734,-0.122 0.2432,-0.23814 0.412534,-0.3496 0.169333,-0.11094 0.370266,-0.2088 0.602666,-0.2932 0.2328,-0.0849 0.497334,-0.12707 0.793734,-0.12707 0.338533,0 0.6448,0.0505 0.920266,0.15107 0.274934,0.10053 0.507334,0.26146 0.697867,0.48386 0.190133,0.22187 0.338533,0.5104 0.444267,0.86454 0.105733,0.35413 0.158933,0.79066 0.158933,1.30893 v 4.99839 z m -8.631199,-0.90466 c 0.1796,0 0.338533,-0.0267 0.475466,-0.0792 0.137467,-0.0531 0.2568,-0.11667 0.357334,-0.19067 0.100533,-0.0739 0.184933,-0.15573 0.2536,-0.24573 0.0688,-0.0901 0.129733,-0.16667 0.1828,-0.23027 v -1.68173 l -0.4124,0.0161 c -0.6136,0.0208 -1.0792,0.12653 -1.3964,0.3172 -0.3172,0.19 -0.476,0.4968 -0.476,0.92026 0,0.3912 0.08947,0.68493 0.269733,0.88027 0.179733,0.19573 0.428133,0.29373 0.745867,0.29373 z m -2.301067,-1.03134 c 0,-0.44426 0.08493,-0.81453 0.254133,-1.11093 0.169334,-0.29573 0.3964,-0.5364 0.682267,-0.72186 0.285467,-0.1848 0.621467,-0.3172 1.007333,-0.39627 0.386,-0.0797 0.795867,-0.11933 1.229734,-0.11933 h 0.3968 v -0.72974 c 0,-0.64519 -0.114,-1.08946 -0.341067,-1.33279 -0.2276,-0.2432 -0.547467,-0.36507 -0.959867,-0.36507 -0.381333,0 -0.698533,0.0823 -0.952133,0.24587 -0.254133,0.164 -0.454667,0.30933 -0.6032,0.4364 l -0.539467,-0.8568 c 0.0848,-0.0843 0.1932,-0.1796 0.325467,-0.28534 0.132267,-0.10573 0.2932,-0.20626 0.483867,-0.3016 0.190666,-0.0953 0.407333,-0.17453 0.650533,-0.238 0.2432,-0.0636 0.518267,-0.0953 0.824933,-0.0953 0.7828,0 1.375067,0.21667 1.777067,0.65054 0.402133,0.43386 0.6032,1.13173 0.6032,2.09426 v 3.47506 c 0,0.328 0.0104,0.64787 0.03173,0.95987 0.0208,0.312 0.04227,0.5208 0.0636,0.62706 H 66.90479 l -0.048,-0.8412 h -0.0312 c -0.04267,0.0953 -0.105734,0.20374 -0.190667,0.32507 -0.08493,0.12187 -0.190533,0.2328 -0.3172,0.33333 -0.127067,0.10054 -0.280133,0.188 -0.4604,0.262 -0.1796,0.0739 -0.391067,0.11094 -0.6344,0.11094 -0.285867,0 -0.552533,-0.0532 -0.801467,-0.15894 -0.248533,-0.10573 -0.4652,-0.2536 -0.650533,-0.44426 -0.184933,-0.19014 -0.3276,-0.41507 -0.428133,-0.67387 -0.100534,-0.25946 -0.151067,-0.54226 -0.151067,-0.84906 z m 113.336264,-20.1409 c -0.0853,-0.096 -0.23867,-0.22534 -0.46134,-0.38933 -0.22133,-0.164 -0.512,-0.24534 -0.872,-0.24534 -0.33866,0 -0.59733,0.0787 -0.77733,0.23734 -0.18,0.15866 -0.26933,0.34933 -0.26933,0.57199 0,0.28534 0.0813,0.52 0.24533,0.70534 0.164,0.18533 0.41467,0.384 0.75333,0.596 l 0.476,0.28533 c 0.51867,0.30666 0.92534,0.63733 1.22267,0.99066 0.296,0.35467 0.444,0.812 0.444,1.37333 0,0.60267 -0.20933,1.11067 -0.62667,1.52267 -0.41866,0.41333 -1.01866,0.61866 -1.80133,0.61866 -0.30667,0 -0.576,-0.032 -0.80933,-0.0947 -0.232,-0.064 -0.436,-0.13734 -0.61067,-0.22267 -0.17467,-0.084 -0.32,-0.176 -0.436,-0.27733 -0.11733,-0.10001 -0.212,-0.19334 -0.28533,-0.27734 l 0.61866,-1.01599 c 0.0627,0.064 0.14,0.13733 0.22934,0.22266 0.0907,0.084 0.19866,0.16667 0.32533,0.24533 0.12667,0.08 0.26933,0.14534 0.428,0.19867 0.15867,0.0533 0.344,0.08 0.556,0.08 0.38133,0 0.672,-0.0853 0.872,-0.25467 0.20133,-0.16933 0.30267,-0.376 0.30267,-0.61866 0,-0.18 -0.024,-0.336 -0.072,-0.468 -0.048,-0.132 -0.11867,-0.252 -0.21467,-0.35733 -0.0947,-0.10534 -0.21067,-0.20667 -0.348,-0.30134 -0.13867,-0.0947 -0.29733,-0.20133 -0.476,-0.31733 l -0.476,-0.30133 c -0.476,-0.30667 -0.84933,-0.62934 -1.11867,-0.968 -0.27066,-0.33867 -0.40533,-0.772 -0.40533,-1.30133 0,-0.28534 0.056,-0.54667 0.16667,-0.78534 0.11066,-0.23733 0.26666,-0.444 0.468,-0.61866 0.20133,-0.17467 0.436,-0.312 0.70666,-0.41333 0.26934,-0.10001 0.55734,-0.14934 0.864,-0.14934 0.296,0 0.55067,0.028 0.76134,0.0867 0.212,0.0587 0.39466,0.132 0.548,0.22267 0.15333,0.0893 0.28,0.17867 0.38133,0.26933 0.1,0.0907 0.18133,0.16667 0.24533,0.23067 z m -4.49067,-0.41333 c -0.032,-0.0213 -0.10133,-0.0467 -0.20667,-0.0787 -0.10533,-0.032 -0.248,-0.048 -0.428,-0.048 -0.40266,0 -0.71733,0.10799 -0.944,0.32533 -0.228,0.21733 -0.38933,0.452 -0.484,0.70666 v 5.58399 h -1.28533 v -7.61465 h 1.17467 v 1.03066 h 0.0307 c 0.0533,-0.14799 0.12267,-0.29333 0.20667,-0.43599 0.0853,-0.14267 0.19067,-0.27067 0.31733,-0.38134 0.12667,-0.11066 0.27734,-0.19866 0.452,-0.26133 0.17467,-0.064 0.384,-0.0947 0.62667,-0.0947 0.18,0 0.32533,0.0147 0.43733,0.0467 0.11067,0.032 0.19734,0.0587 0.26134,0.0787 z m -5.95067,-2.96667 c -0.264,0 -0.476,-0.0853 -0.63466,-0.25333 -0.15867,-0.16933 -0.23734,-0.392 -0.23734,-0.66667 0,-0.26533 0.0787,-0.48133 0.23734,-0.65066 0.15866,-0.16934 0.37066,-0.25334 0.63466,-0.25334 0.25467,0 0.46,0.084 0.61867,0.25334 0.15867,0.16933 0.23867,0.38533 0.23867,0.65066 0,0.27467 -0.08,0.49734 -0.23867,0.66667 -0.15867,0.168 -0.364,0.25333 -0.61867,0.25333 z m 0.63467,9.45599 h -1.28533 v -7.61466 h 1.28533 z m -5.75867,-0.904 c 0.18,0 0.33867,-0.0267 0.476,-0.0787 0.13734,-0.0533 0.256,-0.11733 0.356,-0.19066 0.10134,-0.0747 0.18534,-0.156 0.25467,-0.24667 0.068,-0.0893 0.12933,-0.16667 0.18267,-0.22933 v -1.68266 l -0.41334,0.0173 c -0.61333,0.02 -1.07866,0.12533 -1.396,0.316 -0.31733,0.19066 -0.476,0.49733 -0.476,0.92133 0,0.39066 0.0893,0.684 0.26934,0.88 0.18,0.196 0.42933,0.29333 0.74666,0.29333 z m -2.30133,-1.03066 c 0,-0.444 0.0853,-0.81467 0.25467,-1.11067 0.168,-0.296 0.396,-0.53733 0.68133,-0.72267 0.28533,-0.18533 0.62133,-0.31733 1.008,-0.396 0.38533,-0.08 0.796,-0.11999 1.22933,-0.11999 h 0.39734 v -0.72934 c 0,-0.64533 -0.11467,-1.08933 -0.34134,-1.332 -0.228,-0.244 -0.548,-0.36533 -0.96,-0.36533 -0.38133,0 -0.69866,0.0813 -0.952,0.24534 -0.25466,0.16399 -0.45466,0.30933 -0.60266,0.43599 l -0.54,-0.85599 c 0.0853,-0.084 0.19333,-0.18 0.32533,-0.28534 0.132,-0.10666 0.29333,-0.20666 0.484,-0.30133 0.19067,-0.096 0.40667,-0.17467 0.65067,-0.23867 0.24266,-0.064 0.51866,-0.0947 0.82533,-0.0947 0.78267,0 1.37467,0.216 1.776,0.64933 0.40267,0.43467 0.604,1.132 0.604,2.09467 v 3.47466 c 0,0.32933 0.0107,0.648 0.0307,0.96 0.0213,0.312 0.0427,0.52133 0.064,0.62666 h -1.22134 l -0.048,-0.83999 h -0.032 c -0.0413,0.0947 -0.10533,0.204 -0.19066,0.32533 -0.084,0.12133 -0.18934,0.232 -0.31734,0.33333 -0.12666,0.1 -0.28,0.188 -0.46,0.26134 -0.18,0.0747 -0.39066,0.11066 -0.63466,0.11066 -0.28534,0 -0.552,-0.0533 -0.80134,-0.15867 -0.248,-0.10533 -0.46533,-0.25333 -0.64933,-0.44399 -0.18533,-0.19067 -0.328,-0.41467 -0.42933,-0.67467 -0.1,-0.25867 -0.15067,-0.54133 -0.15067,-0.848 z m -0.74533,-4.63333 h -1.55467 v 6.56799 h -1.28533 v -6.56799 h -0.92 v -0.85733 l 0.92,-0.17467 v -1.52266 c 0,-0.412 0.0573,-0.76667 0.17466,-1.06267 0.116,-0.296 0.26934,-0.54 0.46,-0.73067 0.19067,-0.18933 0.412,-0.32799 0.66667,-0.41199 0.25333,-0.084 0.52267,-0.128 0.808,-0.128 0.276,0 0.508,0.0387 0.69867,0.11199 0.19066,0.0747 0.31733,0.132 0.38133,0.17467 l -0.27067,1.06267 c -0.0627,-0.0413 -0.15333,-0.0867 -0.26933,-0.13467 -0.116,-0.048 -0.25867,-0.0707 -0.428,-0.0707 -0.30667,0 -0.54,0.0947 -0.69867,0.28533 -0.15866,0.19067 -0.23733,0.53867 -0.23733,1.04667 v 1.36533 h 1.71333 z m -4.47467,0 h -1.55467 v 6.56799 h -1.28533 v -6.56799 h -0.92 v -0.85733 l 0.92,-0.17467 v -1.52266 c 0,-0.412 0.0587,-0.76667 0.17467,-1.06267 0.116,-0.296 0.26933,-0.54 0.46,-0.73067 0.19066,-0.18933 0.412,-0.32799 0.66666,-0.41199 0.25334,-0.084 0.52267,-0.128 0.80934,-0.128 0.27466,0 0.50666,0.0387 0.69733,0.11199 0.19067,0.0747 0.31733,0.132 0.38133,0.17467 l -0.26933,1.06267 c -0.064,-0.0413 -0.15333,-0.0867 -0.27067,-0.13467 -0.116,-0.048 -0.25866,-0.0707 -0.428,-0.0707 -0.30666,0 -0.54,0.0947 -0.69866,0.28533 -0.15867,0.19067 -0.23734,0.53867 -0.23734,1.04667 v 1.36533 h 1.71334 z m -7.092,2.01466 -0.85733,-2.99866 c -0.116,-0.40133 -0.216,-0.78533 -0.30134,-1.15067 -0.084,-0.364 -0.132,-0.66799 -0.14266,-0.91199 h -0.032 c -0.0107,0.244 -0.06,0.54266 -0.15067,0.89599 -0.0893,0.35467 -0.19333,0.73334 -0.30933,1.13467 l -0.904,3.03066 z m 2.808,4.55333 h -1.52267 l -0.984,-3.50533 h -3.316 l -1,3.50533 h -1.396 l 3.56934,-10.94799 h 1.08 z m -12.26533,-6.13999 c -0.0307,-0.032 -0.0813,-0.0787 -0.15067,-0.14267 -0.068,-0.0627 -0.156,-0.12666 -0.26133,-0.19067 -0.10534,-0.0627 -0.23334,-0.11866 -0.38134,-0.16666 -0.148,-0.0467 -0.31733,-0.0707 -0.50666,-0.0707 -0.276,0 -0.532,0.0507 -0.77067,0.15066 -0.23733,0.10001 -0.444,0.26134 -0.61867,0.484 -0.17466,0.22134 -0.312,0.51067 -0.412,0.864 -0.1,0.35467 -0.15066,0.78533 -0.15066,1.29333 0,0.56134 0.0453,1.032 0.13466,1.412 0.0893,0.38134 0.21467,0.68533 0.37334,0.91333 0.15866,0.22667 0.35066,0.39067 0.57866,0.49067 0.228,0.10133 0.47867,0.152 0.75334,0.152 0.392,0 0.69066,-0.0693 0.89733,-0.20667 0.20533,-0.13733 0.35067,-0.24933 0.436,-0.33333 l 0.524,0.888 c -0.0533,0.064 -0.13067,0.14 -0.23067,0.23067 -0.1,0.0893 -0.23066,0.17733 -0.38933,0.26133 -0.15867,0.0853 -0.35067,0.156 -0.57867,0.21466 -0.22666,0.0573 -0.48933,0.0867 -0.78533,0.0867 -0.42267,0 -0.82,-0.068 -1.18933,-0.20533 -0.37067,-0.13866 -0.69334,-0.36533 -0.968,-0.68266 -0.276,-0.31734 -0.492,-0.72934 -0.65067,-1.23733 -0.15867,-0.508 -0.23867,-1.13734 -0.23867,-1.888 0,-0.73067 0.096,-1.34933 0.28534,-1.85733 0.19066,-0.50667 0.44,-0.91733 0.74666,-1.22933 0.30667,-0.312 0.648,-0.53867 1.02267,-0.68267 0.376,-0.14267 0.75467,-0.21333 1.13467,-0.21333 0.28533,0 0.53733,0.0267 0.75333,0.0787 0.21733,0.0533 0.40267,0.11866 0.556,0.19866 0.15333,0.08 0.28,0.164 0.38133,0.25334 0.1,0.0907 0.18134,0.16666 0.24534,0.23066 z m -6.83867,-3.316 c -0.264,0 -0.476,-0.0853 -0.63467,-0.25333 -0.15866,-0.16933 -0.23733,-0.392 -0.23733,-0.66667 0,-0.26533 0.0787,-0.48133 0.23733,-0.65066 0.15867,-0.16934 0.37067,-0.25334 0.63467,-0.25334 0.25467,0 0.46133,0.084 0.62,0.25334 0.15867,0.16933 0.23733,0.38533 0.23733,0.65066 0,0.27467 -0.0787,0.49734 -0.23733,0.66667 -0.15867,0.168 -0.36533,0.25333 -0.62,0.25333 z m 0.63467,9.45599 h -1.284 v -7.61466 h 1.284 z m -8.488,0 v -4.90266 c 0,-0.624 -0.0893,-1.07333 -0.26934,-1.348 -0.18,-0.27466 -0.47066,-0.412 -0.87333,-0.412 -0.212,0 -0.39867,0.0253 -0.56267,0.0787 -0.164,0.0533 -0.30933,0.11867 -0.43733,0.19867 -0.12667,0.0787 -0.23733,0.16666 -0.332,0.26133 -0.096,0.0947 -0.17467,0.18 -0.23867,0.25467 v 5.86932 h -1.28533 v -7.61469 h 1.17467 v 0.856 h 0.032 c 0.052,-0.0853 0.132,-0.188 0.23733,-0.30933 0.10533,-0.12133 0.23867,-0.23733 0.39733,-0.34933 0.15867,-0.11067 0.34267,-0.20267 0.55467,-0.27734 0.212,-0.0747 0.44933,-0.11066 0.71467,-0.11066 0.86666,0 1.48,0.33866 1.84,1.01466 0.0733,-0.10533 0.17466,-0.21866 0.30133,-0.34133 0.12667,-0.12133 0.27467,-0.232 0.444,-0.33333 0.16933,-0.10001 0.36,-0.18134 0.572,-0.24534 0.21067,-0.064 0.444,-0.0947 0.69733,-0.0947 1.54534,0 2.31734,0.89867 2.31734,2.69733 v 5.10799 h -1.28534 v -4.90265 c 0,-0.624 -0.112,-1.07334 -0.33333,-1.348 -0.22267,-0.27467 -0.55067,-0.412 -0.984,-0.412 -0.36,0 -0.65867,0.0867 -0.896,0.26133 -0.23867,0.17467 -0.42667,0.34133 -0.564,0.5 0.0213,0.116 0.0373,0.24 0.048,0.372 0.0107,0.13333 0.016,0.27333 0.016,0.42133 v 5.108 z m -6.94934,-3.808 c 0,-1.01466 -0.148,-1.75199 -0.444,-2.21199 -0.29733,-0.46133 -0.70933,-0.69067 -1.23866,-0.69067 -0.528,0 -0.93827,0.22934 -1.22894,0.69067 -0.29106,0.46 -0.4364,1.19733 -0.4364,2.21199 0,1.016 0.14787,1.74534 0.44427,2.19067 0.29573,0.444 0.70907,0.66666 1.23707,0.66666 0.52933,0 0.93866,-0.22266 1.23066,-0.66666 0.29067,-0.44533 0.436,-1.17467 0.436,-2.19067 z m -4.6808,0 c 0,-0.69733 0.0817,-1.29999 0.24587,-1.80799 0.164,-0.508 0.38587,-0.92267 0.66667,-1.24533 0.28013,-0.32267 0.60253,-0.56134 0.9676,-0.71467 0.36466,-0.15333 0.754,-0.22933 1.166,-0.22933 0.42266,0 0.81466,0.076 1.17466,0.22933 0.35867,0.15333 0.67067,0.392 0.936,0.71467 0.264,0.32266 0.47334,0.73733 0.62667,1.24533 0.15333,0.508 0.22933,1.11066 0.22933,1.80799 0,0.70934 -0.0787,1.31734 -0.23733,1.82534 -0.15867,0.50799 -0.37867,0.92266 -0.65867,1.24533 -0.28,0.32266 -0.60533,0.55866 -0.976,0.70666 -0.37066,0.148 -0.76133,0.22134 -1.17333,0.22134 -0.424,0 -0.81467,-0.0733 -1.1748,-0.22134 -0.35933,-0.148 -0.67187,-0.384 -0.93587,-0.70666 -0.26466,-0.32267 -0.47346,-0.73467 -0.62666,-1.23733 -0.1536,-0.50267 -0.23014,-1.11334 -0.23014,-1.83334 z m -2.85626,3.808 v -4.90266 c 0,-0.64533 -0.10827,-1.108 -0.32494,-1.388 -0.2172,-0.28 -0.54746,-0.42 -0.99173,-0.42 -0.38067,0 -0.6984,0.0947 -0.95213,0.28533 -0.25414,0.19067 -0.45467,0.37467 -0.60307,0.556 v 5.86933 h -1.28493 v -7.61466 h 1.174 v 0.856 h 0.0317 c 0.0319,-0.064 0.10053,-0.156 0.20627,-0.27733 0.10573,-0.12133 0.2432,-0.23867 0.41253,-0.34933 0.1692,-0.11067 0.37027,-0.20934 0.60307,-0.29334 0.23226,-0.0853 0.49693,-0.12666 0.79333,-0.12666 0.33853,0 0.6452,0.0493 0.92027,0.14933 0.27493,0.10133 0.50773,0.26267 0.69786,0.48533 0.19067,0.22134 0.33854,0.51067 0.44427,0.864 0.10573,0.35467 0.15893,0.79067 0.15893,1.30933 v 4.99733 z m -7.10827,-3.808 c 0,-1.01466 -0.148,-1.75199 -0.44427,-2.21199 -0.295856,-0.46133 -0.708396,-0.69067 -1.237596,-0.69067 -0.52866,0 -0.93853,0.22934 -1.2296,0.69067 -0.29066,0.46 -0.43653,1.19733 -0.43653,2.21199 0,1.016 0.1484,1.74534 0.44427,2.19067 0.2964,0.444 0.70893,0.66666 1.238,0.66666 0.52866,0 0.93853,-0.22266 1.229726,-0.66666 0.29067,-0.44533 0.436,-1.17467 0.436,-2.19067 z m -4.680266,0 c 0,-0.69733 0.0817,-1.29999 0.24587,-1.80799 0.16347,-0.508 0.38587,-0.92267 0.66613,-1.24533 0.28014,-0.32267 0.60307,-0.56134 0.96827,-0.71467 0.36453,-0.15333 0.7536,-0.22933 1.16613,-0.22933 0.42294,0 0.814,0.076 1.173866,0.22933 0.35947,0.15333 0.67187,0.392 0.936,0.71467 0.26453,0.32266 0.47347,0.73733 0.62707,1.24533 0.15306,0.508 0.22973,1.11066 0.22973,1.80799 0,0.70934 -0.0792,1.31734 -0.23813,1.82534 -0.15827,0.50799 -0.378,0.92266 -0.65827,1.24533 -0.28027,0.32266 -0.6052,0.55866 -0.97547,0.70666 -0.370396,0.148 -0.761996,0.22134 -1.174526,0.22134 -0.42293,0 -0.81453,-0.0733 -1.174,-0.22134 -0.35933,-0.148 -0.67187,-0.384 -0.93587,-0.70666 -0.26466,-0.32267 -0.47346,-0.73467 -0.62706,-1.23733 -0.1532,-0.50267 -0.22974,-1.11334 -0.22974,-1.83334 z m -1.41253,-2.33199 c -0.0317,-0.032 -0.0817,-0.0787 -0.15053,-0.14267 -0.0687,-0.0627 -0.15627,-0.12666 -0.262,-0.19067 -0.1056,-0.0627 -0.2328,-0.11866 -0.38067,-0.16666 -0.14786,-0.0467 -0.3172,-0.0707 -0.50786,-0.0707 -0.27494,0 -0.5312,0.0507 -0.7692,0.15066 -0.238,0.10001 -0.44427,0.26134 -0.6188,0.484 -0.1744,0.22134 -0.3124,0.51067 -0.4124,0.864 -0.10054,0.35467 -0.15107,0.78533 -0.15107,1.29333 0,0.56134 0.0448,1.032 0.1348,1.412 0.0901,0.38134 0.21413,0.68533 0.37293,0.91333 0.15894,0.22667 0.3516,0.39067 0.5792,0.49067 0.22707,0.10133 0.47867,0.152 0.7536,0.152 0.3912,0 0.69014,-0.0693 0.8964,-0.20667 0.20627,-0.13733 0.3516,-0.24933 0.4364,-0.33333 l 0.52347,0.888 c -0.0525,0.064 -0.1296,0.14 -0.2296,0.23067 -0.10053,0.0893 -0.23027,0.17733 -0.38907,0.26133 -0.15893,0.0853 -0.3516,0.156 -0.5792,0.21466 -0.22706,0.0573 -0.48906,0.0867 -0.78546,0.0867 -0.42294,0 -0.81974,-0.068 -1.19014,-0.20533 -0.37026,-0.13866 -0.69266,-0.36533 -0.9676,-0.68266 -0.27506,-0.31734 -0.49173,-0.72934 -0.65053,-1.23733 -0.15893,-0.508 -0.238,-1.13734 -0.238,-1.888 0,-0.73067 0.0952,-1.34933 0.28533,-1.85733 0.19067,-0.50667 0.43907,-0.91733 0.74587,-1.22933 0.3068,-0.312 0.64787,-0.53867 1.02347,-0.68267 0.37546,-0.14267 0.7536,-0.21333 1.1344,-0.21333 0.28586,0 0.53693,0.0267 0.75413,0.0787 0.21667,0.0533 0.4016,0.11866 0.5552,0.19866 0.15306,0.08 0.28013,0.164 0.38067,0.25334 0.10053,0.0907 0.1824,0.16666 0.24586,0.23066 z m -6.09266,-3.71333 h -3.903205 v 3.77733 h 3.586005 v 1.09466 h -3.586005 v 3.84 h 4.300005 l -0.0796,1.14133 h -5.600539 v -10.94799 h 5.378669 z m -9.821338,3.364 c -0.03187,-0.0213 -0.100534,-0.0467 -0.206267,-0.0787 -0.105733,-0.032 -0.2484,-0.048 -0.428667,-0.048 -0.402133,0 -0.716666,0.10799 -0.943733,0.32533 -0.2276,0.21733 -0.389067,0.452 -0.4844,0.70666 v 5.58399 h -1.284933 v -7.61465 h 1.174 v 1.03066 h 0.03173 c 0.0532,-0.14799 0.121867,-0.29333 0.206267,-0.43599 0.08493,-0.14267 0.190666,-0.27067 0.3172,-0.38134 0.127066,-0.11066 0.2776,-0.19866 0.452666,-0.26133 0.1744,-0.064 0.383334,-0.0947 0.626534,-0.0947 0.179733,0 0.325466,0.0147 0.4364,0.0467 0.110933,0.032 0.198533,0.0587 0.261466,0.0787 z m -6.298934,2.68132 c 0,-1.01466 -0.148533,-1.75199 -0.444266,-2.21199 -0.2964,-0.46133 -0.708934,-0.69067 -1.238134,-0.69067 -0.528533,0 -0.938533,0.22934 -1.229066,0.69067 -0.2912,0.46 -0.436534,1.19733 -0.436534,2.21199 0,1.016 0.148,1.74534 0.444267,2.19067 0.295867,0.444 0.7084,0.66666 1.237467,0.66666 0.528666,0 0.938666,-0.22266 1.229733,-0.66666 0.290667,-0.44533 0.436533,-1.17467 0.436533,-2.19067 z m -4.680799,0 c 0,-0.69733 0.08173,-1.29999 0.245866,-1.80799 0.164,-0.508 0.385867,-0.92267 0.666667,-1.24533 0.280133,-0.32267 0.602533,-0.56134 0.967733,-0.71467 0.365067,-0.15333 0.7536,-0.22933 1.166133,-0.22933 0.422934,0 0.814534,0.076 1.173867,0.22933 0.36,0.15333 0.672,0.392 0.936533,0.71467 0.264,0.32266 0.472934,0.73733 0.626534,1.24533 0.1532,0.508 0.230266,1.11066 0.230266,1.80799 0,0.70934 -0.07973,1.31734 -0.238,1.82534 -0.158933,0.50799 -0.378133,0.92266 -0.658933,1.24533 -0.280133,0.32266 -0.6052,0.55866 -0.975467,0.70666 -0.3704,0.148 -0.761466,0.22134 -1.174,0.22134 -0.423466,0 -0.814533,-0.0733 -1.174533,-0.22134 -0.359333,-0.148 -0.671867,-0.384 -0.935866,-0.70666 -0.264534,-0.32267 -0.473467,-0.73467 -0.626534,-1.23733 -0.153733,-0.50267 -0.230266,-1.11334 -0.230266,-1.83334 z m -0.7776,-2.75999 h -1.554667 v 6.56799 h -1.285467 v -6.56799 h -0.920266 v -0.85733 l 0.920266,-0.17467 v -1.52266 c 0,-0.412 0.0584,-0.76667 0.174534,-1.06267 0.116666,-0.296 0.269733,-0.54 0.4604,-0.73067 0.190133,-0.18933 0.412533,-0.32799 0.666133,-0.41199 0.2536,-0.084 0.523467,-0.128 0.809333,-0.128 0.275067,0 0.507334,0.0387 0.698,0.11199 0.190534,0.0747 0.3172,0.132 0.380667,0.17467 l -0.269733,1.06267 c -0.0636,-0.0413 -0.1532,-0.0867 -0.269867,-0.13467 -0.116133,-0.048 -0.2588,-0.0707 -0.428133,-0.0707 -0.306667,0 -0.539467,0.0947 -0.6984,0.28533 -0.158267,0.19067 -0.237467,0.53867 -0.237467,1.04667 v 1.36533 h 1.713467 z m 87.616127,-17.04664 -2.38,8.05865 c -0.276,0.932 -0.61067,1.63467 -1.008,2.11066 -0.396,0.476 -0.97067,0.71467 -1.72133,0.71467 -0.15867,0 -0.29067,-0.0187 -0.39734,-0.056 -0.10533,-0.0373 -0.18,-0.0653 -0.22133,-0.0867 v -1.11067 c 0.052,0.0213 0.12133,0.0453 0.20533,0.072 0.0853,0.0253 0.196,0.0387 0.33334,0.0387 0.45466,0 0.80133,-0.14266 1.04,-0.428 0.23733,-0.28533 0.44133,-0.72533 0.61066,-1.31733 l 0.11067,-0.396 -2.45867,-7.59999 h 1.38 l 1.19067,4.22 c 0.116,0.43333 0.22133,0.83866 0.31733,1.21333 0.0947,0.376 0.15334,0.712 0.17334,1.008 h 0.032 c 0.0213,-0.296 0.072,-0.62933 0.15066,-1 0.08,-0.37067 0.17734,-0.772 0.29334,-1.20533 l 1.08,-4.236 z m -6.34667,1.12533 c -0.032,-0.0213 -0.10133,-0.0467 -0.20666,-0.0787 -0.10534,-0.032 -0.248,-0.048 -0.428,-0.048 -0.40267,0 -0.71734,0.108 -0.944,0.32533 -0.228,0.21733 -0.38934,0.452 -0.484,0.70667 v 5.58399 h -1.28534 v -7.61465 h 1.17334 v 1.03066 h 0.032 c 0.0533,-0.148 0.12133,-0.29333 0.20666,-0.436 0.084,-0.14267 0.19067,-0.27067 0.31734,-0.38133 0.12666,-0.11067 0.27733,-0.19867 0.452,-0.26133 0.17466,-0.064 0.384,-0.0947 0.62666,-0.0947 0.18,0 0.32534,0.0147 0.436,0.0467 0.112,0.032 0.19867,0.0587 0.26267,0.0787 z m -4.808,-0.0787 h -1.66666 v 4.22 c 0,0.53999 0.0693,0.90666 0.20666,1.10266 0.13734,0.196 0.37067,0.29467 0.69867,0.29467 0.19067,0 0.35467,-0.0267 0.492,-0.08 0.13733,-0.0533 0.23733,-0.10133 0.30133,-0.14267 l 0.17467,1.03067 c -0.0533,0.0427 -0.18,0.10933 -0.38133,0.19866 -0.20134,0.0907 -0.47067,0.13467 -0.80934,0.13467 -0.656,0 -1.148,-0.18133 -1.476,-0.54667 -0.32666,-0.36533 -0.49066,-0.97066 -0.49066,-1.81733 v -4.39466 h -0.92134 v -0.85733 l 0.92134,-0.18933 0.14266,-2.126669 h 1.14134 v 2.126669 h 1.82533 z m -5.52133,0.492 c -0.0853,-0.096 -0.23867,-0.22534 -0.46,-0.38934 -0.22267,-0.164 -0.51333,-0.24533 -0.87333,-0.24533 -0.33867,0 -0.59734,0.0787 -0.77734,0.23733 -0.18,0.15867 -0.26933,0.34934 -0.26933,0.572 0,0.28533 0.0813,0.52 0.24533,0.70533 0.164,0.18534 0.416,0.384 0.75334,0.596 l 0.476,0.28534 c 0.51866,0.30666 0.92666,0.63733 1.22266,0.99066 0.296,0.35467 0.444,0.812 0.444,1.37333 0,0.60267 -0.20933,1.11067 -0.62666,1.52267 -0.41734,0.41333 -1.01867,0.61867 -1.80134,0.61867 -0.30666,0 -0.576,-0.032 -0.80933,-0.0947 -0.232,-0.064 -0.436,-0.13733 -0.61067,-0.22266 -0.17466,-0.084 -0.32,-0.176 -0.436,-0.27733 -0.116,-0.10001 -0.212,-0.19334 -0.28533,-0.27734 l 0.61867,-1.01599 c 0.0627,0.064 0.14,0.13733 0.22933,0.22266 0.0907,0.084 0.19867,0.16667 0.32533,0.24533 0.128,0.08 0.27067,0.14534 0.42934,0.19867 0.15866,0.0533 0.34266,0.08 0.55466,0.08 0.38134,0 0.672,-0.0853 0.87334,-0.25467 0.2,-0.16933 0.30133,-0.37599 0.30133,-0.61866 0,-0.18 -0.024,-0.336 -0.072,-0.468 -0.0467,-0.132 -0.11867,-0.252 -0.21333,-0.35733 -0.096,-0.10534 -0.212,-0.20667 -0.34934,-0.30134 -0.13733,-0.0947 -0.296,-0.20133 -0.476,-0.31733 l -0.476,-0.30133 c -0.476,-0.30667 -0.84933,-0.62933 -1.11866,-0.968 -0.26934,-0.33867 -0.40534,-0.772 -0.40534,-1.30133 0,-0.28534 0.056,-0.54667 0.16667,-0.78534 0.112,-0.23733 0.268,-0.44399 0.468,-0.61866 0.20133,-0.17467 0.43733,-0.312 0.70667,-0.41333 0.26933,-0.10001 0.55733,-0.14934 0.864,-0.14934 0.29733,0 0.55066,0.028 0.76266,0.0867 0.21067,0.0587 0.39334,0.132 0.54667,0.22267 0.15333,0.0893 0.28,0.17867 0.38133,0.26933 0.1,0.0907 0.18267,0.16667 0.24534,0.23067 z m -5.88667,-3.38 c -0.264,0 -0.476,-0.08533 -0.63466,-0.253332 -0.15867,-0.169333 -0.23867,-0.391999 -0.23867,-0.666666 0,-0.265333 0.08,-0.481333 0.23867,-0.650665 0.15866,-0.169334 0.37066,-0.253333 0.63466,-0.253333 0.25334,0 0.46,0.084 0.61867,0.253333 0.15867,0.169332 0.23733,0.385332 0.23733,0.650665 0,0.274667 -0.0787,0.497333 -0.23733,0.666666 -0.15867,0.168 -0.36533,0.253332 -0.61867,0.253332 z m 0.63467,9.45599 h -1.28533 v -7.61466 h 1.28533 z m -4.49067,0 v -4.90266 c 0,-0.64533 -0.108,-1.108 -0.32533,-1.388 -0.216,-0.28 -0.54667,-0.42 -0.992,-0.42 -0.38,0 -0.69733,0.0947 -0.952,0.28533 -0.25333,0.19067 -0.45467,0.37467 -0.60267,0.556 v 5.86933 h -1.28533 v -7.61465 h 1.17467 v 0.85599 h 0.032 c 0.032,-0.064 0.1,-0.156 0.20533,-0.27733 0.10667,-0.12133 0.244,-0.23867 0.41333,-0.34933 0.16934,-0.11067 0.37067,-0.20933 0.60267,-0.29333 0.23333,-0.0853 0.49733,-0.12667 0.79333,-0.12667 0.33867,0 0.64534,0.0493 0.92,0.14933 0.276,0.10133 0.508,0.26267 0.69867,0.48534 0.19067,0.22133 0.33867,0.51066 0.444,0.86399 0.10533,0.35467 0.15867,0.79067 0.15867,1.30933 v 4.99733 z m -6.75866,-9.45596 c -0.26534,0 -0.476,-0.08533 -0.63467,-0.253333 -0.15867,-0.169332 -0.23867,-0.391999 -0.23867,-0.666665 0,-0.265333 0.08,-0.481333 0.23867,-0.650665 0.15867,-0.169334 0.36933,-0.253333 0.63467,-0.253333 0.25333,0 0.46,0.084 0.61866,0.253333 0.15867,0.169332 0.23734,0.385332 0.23734,0.650665 0,0.274666 -0.0787,0.497333 -0.23734,0.666665 -0.15866,0.168 -0.36533,0.253333 -0.61866,0.253333 z m 0.63466,9.45599 h -1.28533 v -7.61466 h 1.28533 z m -3.52266,-10.947987 v 10.947987 h -1.33334 v -5.20399 c 0,-0.328 0,-0.65067 0,-0.968 0,-0.31734 0.003,-0.61334 0.008,-0.888 0.005,-0.27467 0.0133,-0.51867 0.024,-0.72933 0.0107,-0.212 0.0213,-0.376 0.032,-0.492 h -0.048 c -0.052,0.24266 -0.16133,0.63733 -0.32533,1.18133 -0.164,0.54533 -0.35067,1.12933 -0.56267,1.75333 l -1.80933,5.34666 h -1.09467 l -1.80866,-5.34666 c -0.21147,-0.624 -0.39894,-1.208 -0.56294,-1.75333 -0.16413,-0.544 -0.2724,-0.93866 -0.3256,-1.18133 h -0.0473 c 0.0104,0.12667 0.0213,0.296 0.0317,0.50667 0.0104,0.21199 0.0183,0.452 0.024,0.72266 0.005,0.26933 0.008,0.56267 0.008,0.88 0,0.31733 0,0.64 0,0.968 v 5.20399 h -1.3328 V 10.98273 h 1.53906 l 2.58547,7.553324 c 0.11733,0.34933 0.22,0.68933 0.31067,1.02266 0.0893,0.33334 0.14533,0.62134 0.16533,0.86534 h 0.032 c 0.0107,-0.244 0.0613,-0.52934 0.15067,-0.85734 0.0907,-0.32666 0.19333,-0.66533 0.30933,-1.01466 l 2.58667,-7.569324 z m -15.10494,9.171987 c 0,0.31733 0.0448,0.53867 0.13494,0.66533 0.0895,0.128 0.24573,0.19067 0.4676,0.19067 0.11666,0 0.21466,-0.0107 0.29373,-0.0307 0.0792,-0.0213 0.14013,-0.0427 0.1824,-0.064 l 0.11147,0.952 c -0.0636,0.032 -0.18027,0.0733 -0.34947,0.12666 -0.1688,0.0533 -0.3964,0.08 -0.6824,0.08 -0.43333,0 -0.7828,-0.13333 -1.0468,-0.39733 -0.26467,-0.264 -0.39693,-0.736 -0.39693,-1.412 V 10.71336 l 1.28546,-0.142666 z m -5.743726,0.872 c 0.1796,0 0.33853,-0.0267 0.476,-0.0787 0.13747,-0.0533 0.25627,-0.11733 0.3568,-0.19067 0.10053,-0.0747 0.18533,-0.156 0.25413,-0.24666 0.0688,-0.0893 0.1292,-0.16667 0.18227,-0.22934 v -1.68266 l -0.41253,0.0173 c -0.61347,0.02 -1.07907,0.12533 -1.39627,0.316 -0.3172,0.19066 -0.476,0.49733 -0.476,0.92133 0,0.39067 0.09,0.684 0.26973,0.88 0.17974,0.196 0.42867,0.29333 0.74587,0.29333 z m -2.30053,-1.03066 c 0,-0.44401 0.0844,-0.81467 0.2536,-1.11067 0.16933,-0.296 0.39693,-0.53733 0.68226,-0.72267 0.28547,-0.18533 0.62134,-0.31733 1.00787,-0.396 0.38587,-0.08 0.79587,-0.12 1.2292,-0.12 h 0.3968 v -0.72933 c 0,-0.64533 -0.11347,-1.08933 -0.34107,-1.33199 -0.2276,-0.244 -0.54746,-0.36534 -0.96,-0.36534 -0.38066,0 -0.6984,0.0813 -0.952,0.24534 -0.25373,0.164 -0.45466,0.30933 -0.6032,0.436 l -0.53906,-0.856 c 0.0844,-0.084 0.1928,-0.18 0.32506,-0.28533 0.13227,-0.10667 0.29374,-0.20667 0.48387,-0.30134 0.19053,-0.096 0.4072,-0.17466 0.65053,-0.23866 0.24374,-0.064 0.51814,-0.0947 0.82494,-0.0947 0.7828,0 1.3756,0.21599 1.77706,0.64933 0.40214,0.43466 0.603196,1.132 0.603196,2.09466 v 3.47466 c 0,0.32934 0.0104,0.648 0.0317,0.96 0.0213,0.312 0.0421,0.52133 0.0636,0.62667 h -1.221856 l -0.0475,-0.84 h -0.0317 c -0.0423,0.0947 -0.10574,0.204 -0.19067,0.32533 -0.0844,0.12134 -0.19013,0.232 -0.3172,0.33333 -0.12707,0.10001 -0.28013,0.188 -0.45987,0.26134 -0.18026,0.0747 -0.39173,0.11066 -0.63493,0.11066 -0.28533,0 -0.55253,-0.0533 -0.80107,-0.15866 -0.24893,-0.10534 -0.4656,-0.25334 -0.6504,-0.444 -0.18546,-0.19067 -0.32813,-0.41467 -0.42866,-0.67467 -0.10054,-0.25866 -0.15054,-0.54133 -0.15054,-0.848 z m -0.74587,-4.55466 c -0.0317,-0.0213 -0.10053,-0.0467 -0.20626,-0.0787 -0.10574,-0.032 -0.24841,-0.048 -0.42867,-0.048 -0.402,0 -0.71667,0.108 -0.94373,0.32533 -0.2276,0.21733 -0.38907,0.452 -0.4844,0.70667 v 5.58399 h -1.2848 v -7.61466 h 1.17386 v 1.03066 h 0.0319 c 0.0531,-0.148 0.12187,-0.29333 0.20627,-0.436 0.0848,-0.14266 0.19053,-0.27066 0.31706,-0.38133 0.1272,-0.11067 0.2776,-0.19867 0.45267,-0.26133 0.17453,-0.064 0.38333,-0.0947 0.62653,-0.0947 0.17974,0 0.3256,0.0147 0.43654,0.0467 0.11093,0.032 0.1984,0.0587 0.26146,0.0787 z m -7.47347,-0.26934 c -0.45466,0 -0.81973,0.19067 -1.0948,0.572 -0.27493,0.38 -0.433862,0.93067 -0.475995,1.64933 h 2.776535 c 0.0109,-0.0533 0.0188,-0.12933 0.024,-0.22933 0.005,-0.10133 0.008,-0.20933 0.008,-0.32533 0,-0.52933 -0.10574,-0.94 -0.3172,-1.23067 -0.21147,-0.29066 -0.51827,-0.436 -0.9204,-0.436 z m 2.41201,1.71334 c 0,0.32799 -0.0104,0.61199 -0.0317,0.84933 -0.0213,0.23866 -0.0423,0.44666 -0.0636,0.62666 h -3.887471 c 0.04213,0.89867 0.235471,1.56 0.579201,1.98267 0.34373,0.424 0.83853,0.636 1.48387,0.636 0.22186,0 0.42293,-0.0267 0.60253,-0.08 0.18027,-0.0533 0.336,-0.116 0.46827,-0.19067 0.13226,-0.0733 0.2432,-0.148 0.33333,-0.22267 0.0896,-0.0733 0.15573,-0.132 0.19787,-0.17333 l 0.47613,0.904 c -0.0527,0.0533 -0.1324,0.12933 -0.23813,0.22933 -0.10574,0.10133 -0.2484,0.20133 -0.428,0.30267 -0.17974,0.1 -0.40214,0.188 -0.66667,0.26133 -0.26413,0.0747 -0.57667,0.11067 -0.936,0.11067 -0.476,0 -0.90733,-0.0787 -1.2932,-0.23733 -0.386,-0.15867 -0.714135,-0.40534 -0.983335,-0.73867 -0.269866,-0.332 -0.478666,-0.756 -0.627066,-1.26933 -0.148,-0.512 -0.221867,-1.12934 -0.221867,-1.848 0,-0.676 0.07653,-1.26133 0.2296,-1.75333 0.153733,-0.492 0.362533,-0.896 0.627067,-1.21333 0.264133,-0.31733 0.570931,-0.55334 0.920401,-0.70667 0.34893,-0.15333 0.7244,-0.22933 1.12653,-0.22933 0.72974,0 1.30107,0.22933 1.71347,0.68933 0.41253,0.46 0.6188,1.15067 0.6188,2.07067 z m -9.567738,4.09466 c 0.201066,0 0.3808,-0.0267 0.5396,-0.08 0.1584,-0.0533 0.295866,-0.11867 0.412533,-0.19867 0.116133,-0.0787 0.214,-0.16133 0.2932,-0.24533 0.07973,-0.0853 0.140667,-0.15867 0.1828,-0.22267 v -4.69599 c -0.116667,-0.0747 -0.251467,-0.13734 -0.404667,-0.19067 -0.1536,-0.0533 -0.3464,-0.0787 -0.5792,-0.0787 -0.296266,0 -0.573866,0.0493 -0.8328,0.15067 -0.259333,0.1 -0.4844,0.26666 -0.6744,0.5 -0.190666,0.232 -0.3412,0.53333 -0.452133,0.90399 -0.110933,0.36934 -0.166667,0.824 -0.166667,1.364 0,0.52934 0.0448,0.97067 0.134934,1.32534 0.0896,0.35333 0.214,0.63999 0.372933,0.85599 0.158267,0.21734 0.338533,0.37334 0.539067,0.468 0.200933,0.096 0.4124,0.144 0.6348,0.144 z m -3.014534,-2.74533 c 0,-0.772 0.100534,-1.41733 0.3016,-1.936 0.200534,-0.51867 0.459867,-0.936 0.777067,-1.25333 0.317733,-0.31734 0.677067,-0.54267 1.0792,-0.67467 0.402,-0.132 0.8036,-0.19733 1.2056,-0.19733 0.243333,0 0.4548,0.0173 0.634933,0.0547 0.179734,0.0373 0.3276,0.0827 0.444267,0.13466 v -3.649325 l 1.284933,-0.142666 v 11.359981 h -1.174 v -0.808 h -0.03173 c -0.03173,0.0627 -0.09013,0.15067 -0.174533,0.26134 -0.0848,0.11066 -0.200934,0.22266 -0.348934,0.33333 -0.1484,0.11067 -0.333333,0.20533 -0.555733,0.28533 -0.221867,0.08 -0.4812,0.11867 -0.777067,0.11867 -0.359866,0 -0.701066,-0.0707 -1.023466,-0.21333 -0.322934,-0.144 -0.605734,-0.37067 -0.848934,-0.68267 -0.2432,-0.312 -0.4364,-0.71466 -0.5792,-1.20666 -0.142666,-0.49067 -0.214,-1.08667 -0.214,-1.784 z m -3.776533,-3.06267 c -0.454667,0 -0.819867,0.19067 -1.0948,0.572 -0.275067,0.38 -0.433333,0.93067 -0.476133,1.64933 h 2.7772 c 0.0104,-0.0533 0.01813,-0.12933 0.02333,-0.22933 0.0052,-0.10133 0.0084,-0.20933 0.0084,-0.32533 0,-0.52933 -0.105733,-0.94 -0.317733,-1.23067 -0.211467,-0.29066 -0.518267,-0.436 -0.920267,-0.436 z m 2.412,1.71333 c 0,0.328 -0.01053,0.612 -0.03187,0.84934 -0.02133,0.23866 -0.04213,0.44666 -0.06347,0.62666 h -3.8876 c 0.0428,0.89867 0.235466,1.56 0.5792,1.98267 0.343733,0.424 0.838533,0.636 1.483866,0.636 0.221867,0 0.422934,-0.0267 0.602667,-0.08 0.180133,-0.0533 0.335867,-0.116 0.468133,-0.19067 0.1324,-0.0733 0.243334,-0.148 0.333334,-0.22267 0.0896,-0.0733 0.155733,-0.132 0.198533,-0.17333 l 0.476,0.904 c -0.05307,0.0533 -0.132267,0.12933 -0.238,0.22933 -0.105733,0.10133 -0.248933,0.20133 -0.428667,0.30267 -0.179733,0.1 -0.402133,0.188 -0.666133,0.26133 -0.264667,0.0747 -0.576533,0.11067 -0.936533,0.11067 -0.476,0 -0.906667,-0.0787 -1.2932,-0.23734 -0.385867,-0.15866 -0.713467,-0.40533 -0.983334,-0.73866 -0.269733,-0.332 -0.478666,-0.756 -0.627066,-1.26933 -0.147867,-0.512 -0.221867,-1.12934 -0.221867,-1.848 0,-0.676 0.07653,-1.26133 0.230267,-1.75333 0.153066,-0.492 0.361866,-0.896 0.626533,-1.21333 0.264,-0.31734 0.571333,-0.55334 0.920267,-0.70667 0.348933,-0.15333 0.724533,-0.22933 1.126533,-0.22933 0.729733,0 1.301067,0.22933 1.7136,0.68933 0.412533,0.46 0.6188,1.15067 0.6188,2.07066 z m -11.582933,5.04533 V 10.98273 h 5.378666 l -0.0948,1.094665 h -3.903066 v 4.046659 h 3.6016 v 1.09467 h -3.6016 v 4.71199 h -1.3808"
     style="fill:#231f20;fill-opacity:1;fill-rule:nonzero;stroke:none;stroke-width:0.133333"
     id="path138" /></svg>
