<?xml version="1.0" encoding="UTF-8" standalone="no"?>
<svg viewBox="0 0 250 250" height="250" width="250" version="1.1" id="svg5" xmlns="http://www.w3.org/2000/svg" >
  <path style="fill:#284058;fill-opacity:1;fill-rule:nonzero;stroke:none;stroke-width:0.133333"
     d="M 230.1776,87.644327 133.91893,32.069662 c -5.52,-3.186667 -12.31866,-3.186667 -17.83733,0 l -63.827065,36.850666 0.024,0.01467 -0.6428,0.370667 c 1.8224,0.552 3.584933,1.304 5.238133,2.268 l 2.579066,1.505333 0.0052,-0.0013 18.2048,10.505333 -7.852666,4.533333 -16.895867,-9.754666 -0.0015,0.0027 c -5.533867,-3.228 -12.590133,-2.938667 -17.933867,0.757333 1.742134,0.545333 3.427067,1.273333 5.011867,2.198666 l 3.941733,2.3 h -5.33e-4 l 16.833333,9.718667 -7.845333,4.529333 -17.110933,-9.874666 c -6.127067,-3.448 -14.033867,-2.644 -19.440533,2.261333 -3.4444,3.32 -5.4636,7.932 -5.4636,12.837336 v 43.78826 c 0,6.37027 3.399467,12.25827 8.918266,15.44627 l 96.258269,55.57346 c 5.51867,3.1864 12.31733,3.1864 17.43067,0.23494 l 63.89066,-36.88707 -10e-4,-9.3e-4 0.65066,-0.37507 c -1.82133,-0.55213 -3.584,-1.3036 -5.23733,-2.26773 l -2.58,-1.50413 -0.0147,0.003 -97.271997,-56.13493 7.859867,-4.53707 95.94813,55.3948 0.02,-0.0109 c 5.536,3.2308 12.596,2.9376 17.94267,-0.764 -1.69333,-0.5292 -3.33067,-1.22653 -4.876,-2.11453 l -1.02667,-0.59334 -1.69733,-0.99053 -0.0147,0.003 -97.25066,-56.14533 7.83733,-4.52533 96.00933,55.40666 c 5.84,3.38387 13.35734,2.85307 18.77467,-1.44693 0.45067,-0.3744 0.908,-0.74213 1.316,-1.14787 3.41467,-3.39066 5.304,-7.86933 5.304,-12.6156 v -43.7896 c 0,-6.371996 -3.4,-12.259996 -8.91733,-15.446663" />
  <path style="fill:#5dcae9;fill-opacity:1;fill-rule:nonzero;stroke:none;stroke-width:0.133333"
     d="m 124.99893,156.79873 -54.803729,-31.63747 54.803729,-31.636933 54.80267,31.636933 -7.51467,4.33853 24.744,14.28694 8.65067,-4.99427 V 111.53099 L 125.00027,64.953661 44.316535,111.53099 v 27.26147 l 80.683735,46.5772 32.25733,-18.6224 -24.74533,-14.28547 -7.51334,4.33694" />
</svg>
